HIERARCHY
ROOT joint_0
{
	OFFSET 0.000000 0.000000 0.000000
	CHANNELS 6 Xposition Yposition Zposition Zrotation Yrotation Xrotation 
	JOINT joint_1
	{
		OFFSET 17.107422 0.519409 105.452026
		CHANNELS 3 Zrotation Yrotation Xrotation
		JOINT joint_2
		{
			OFFSET 6.110352 -1.434082 97.381958
			CHANNELS 3 Zrotation Yrotation Xrotation
			JOINT joint_3
			{
				OFFSET 6.305908 -1.739990 97.255005
				CHANNELS 3 Zrotation Yrotation Xrotation
				JOINT joint_4
				{
					OFFSET 22.074707 -0.492493 131.077026
					CHANNELS 3 Zrotation Yrotation Xrotation
					JOINT joint_5
					{
						OFFSET 34.162842 2.248718 78.700928
						CHANNELS 3 Zrotation Yrotation Xrotation
						End Site
						{
							OFFSET 0.000000 0.000000 0.000000
						}
					}
				}
				JOINT joint_6
				{
					OFFSET 17.059082 -28.836914 72.664062
					CHANNELS 3 Zrotation Yrotation Xrotation
					JOINT joint_7
					{
						OFFSET 22.639893 -134.803833 -24.691040
						CHANNELS 3 Zrotation Yrotation Xrotation
						JOINT joint_8
						{
							OFFSET 7.301758 -32.590759 -269.966064
							CHANNELS 3 Zrotation Yrotation Xrotation
							JOINT joint_9
							{
								OFFSET 35.581055 -8.517151 -242.326965
								CHANNELS 3 Zrotation Yrotation Xrotation
								End Site
								{
									OFFSET 0.000000 0.000000 0.000000
								}
							}
						}
					}
				}
				JOINT joint_10
				{
					OFFSET 7.819092 28.232056 74.432983
					CHANNELS 3 Zrotation Yrotation Xrotation
					JOINT joint_11
					{
						OFFSET -23.457031 135.063843 -22.406982
						CHANNELS 3 Zrotation Yrotation Xrotation
						JOINT joint_12
						{
							OFFSET 17.896973 48.138672 -267.131958
							CHANNELS 3 Zrotation Yrotation Xrotation
							JOINT joint_13
							{
								OFFSET 46.526367 17.567627 -239.975037
								CHANNELS 3 Zrotation Yrotation Xrotation
								End Site
								{
									OFFSET 0.000000 0.000000 0.000000
								}
							}
						}
					}
				}
			}
		}
	}
	JOINT joint_14
	{
		OFFSET 10.553467 -100.140320 -126.306030
		CHANNELS 3 Zrotation Yrotation Xrotation
		JOINT joint_15
		{
			OFFSET -52.094238 -9.565002 -436.052002
			CHANNELS 3 Zrotation Yrotation Xrotation
			JOINT joint_16
			{
				OFFSET -55.682617 -11.310120 -462.482971
				CHANNELS 3 Zrotation Yrotation Xrotation
				JOINT joint_17
				{
					OFFSET 179.119385 -5.942566 -84.087004
					CHANNELS 3 Zrotation Yrotation Xrotation
					End Site
					{
						OFFSET 0.000000 0.000000 0.000000
					}
				}
			}
		}
	}
	JOINT joint_18
	{
		OFFSET -22.235352 101.620483 -123.583984
		CHANNELS 3 Zrotation Yrotation Xrotation
		JOINT joint_19
		{
			OFFSET -38.118408 12.306396 -437.429016
			CHANNELS 3 Zrotation Yrotation Xrotation
			JOINT joint_20
			{
				OFFSET -51.789307 8.010498 -463.006004
				CHANNELS 3 Zrotation Yrotation Xrotation
				JOINT joint_21
				{
					OFFSET 170.088135 59.632324 -83.078003
					CHANNELS 3 Zrotation Yrotation Xrotation
					End Site
					{
						OFFSET 0.000000 0.000000 0.000000
					}
				}
			}
		}
	}
}
MOTION
Frames: 18
Frame Time: 0.016667
-3262.019775 964.834839 1128.006958 -3.218669 -3.596098 -0.637403 -0.953790 -1.601069 0.761896 -0.869704 0.224959 -0.343136 -0.903179 -0.195621 0.060040 0.651931 -4.153713 -1.122964 0.000000 0.000000 0.000000 -2.014057 0.694389 2.131017 0.183156 -0.430091 -2.085674 0.412184 -1.370068 2.310692 0.000000 0.000000 0.000000 -0.032066 0.863062 -0.975645 0.582348 1.008501 -0.693878 0.481887 -0.890717 2.783733 0.000000 0.000000 0.000000 1.263055 0.175440 -0.130399 1.282114 1.354770 -0.504157 1.140064 1.768114 0.592188 0.000000 0.000000 0.000000 0.141567 0.904879 1.267809 0.215854 0.203157 0.157780 0.302438 1.567524 -0.402417 0.000000 0.000000 0.000000 
-3259.674316 964.837341 1127.850952 -3.156572 -3.389534 -0.644563 -0.917465 -1.433632 0.735666 -0.837711 0.201761 -0.309894 -0.866482 -0.153972 0.037925 0.668366 -4.694819 -1.112087 0.000000 0.000000 0.000000 -1.955055 0.984473 2.089201 0.100018 -0.113400 -2.138390 0.515313 -2.494180 2.632095 0.000000 0.000000 0.000000 -0.062783 0.887553 -0.982202 0.562201 1.022527 -0.774697 0.532518 -0.553588 2.911562 0.000000 0.000000 0.000000 1.273681 0.102347 -0.156630 1.282923 1.354301 -0.462457 1.149212 1.634631 0.592201 0.000000 0.000000 0.000000 0.163374 0.871972 1.220804 0.225624 0.075208 0.222983 0.320012 1.552014 -0.388380 0.000000 0.000000 0.000000 
-3257.068359 964.955750 1127.686035 -3.084932 -3.196109 -0.648775 -0.879451 -1.243942 0.720315 -0.803134 0.174212 -0.289509 -0.828554 -0.115078 0.024767 0.679787 -5.172844 -1.097409 0.000000 0.000000 0.000000 -1.841350 1.437128 1.827969 -0.005620 0.426668 -2.135923 0.754742 -4.636673 3.443064 0.000000 0.000000 0.000000 -0.063583 1.000790 -0.989015 0.594630 1.130287 -0.848654 0.532644 -0.662131 2.955389 0.000000 0.000000 0.000000 1.285087 0.063555 -0.200631 1.282096 1.350010 -0.410760 1.158300 1.484575 0.591641 0.000000 0.000000 0.000000 0.178804 0.842403 1.174404 0.231750 0.000341 0.272907 0.329170 1.492194 -0.362898 0.000000 0.000000 0.000000 
-3254.244629 965.263916 1127.515991 -2.978722 -3.016396 -0.653673 -0.847643 -1.056369 0.739311 -0.771180 0.147931 -0.298104 -0.796672 -0.085766 0.033082 0.682860 -5.525159 -1.081102 0.000000 0.000000 0.000000 -1.631341 2.167318 1.318972 -0.128458 1.300813 -2.161602 1.217522 -8.371834 4.993863 0.000000 0.000000 0.000000 -0.015659 1.260367 -1.031555 0.726653 1.407911 -0.872000 0.443510 -1.575312 2.851277 0.000000 0.000000 0.000000 1.284977 0.069779 -0.268350 1.266421 1.319976 -0.341332 1.154786 1.333164 0.585130 0.000000 0.000000 0.000000 0.161084 0.787006 1.151978 0.214052 0.029126 0.279947 0.305625 1.362431 -0.328819 0.000000 0.000000 0.000000 
-3251.194092 965.716553 1127.329956 -2.851738 -2.851493 -0.655884 -0.814877 -0.862404 0.776407 -0.737042 0.121634 -0.313821 -0.763603 -0.060717 0.048936 0.685877 -5.786263 -1.082638 0.000000 0.000000 0.000000 -1.362888 3.147870 0.789522 -0.265885 2.407644 -2.358738 1.837012 -13.436695 6.980748 0.000000 0.000000 0.000000 0.069264 1.610208 -1.140167 0.933853 1.807147 -0.818760 0.297735 -3.032926 2.648649 0.000000 0.000000 0.000000 1.280037 0.115828 -0.358632 1.242394 1.276759 -0.255014 1.145231 1.172294 0.575468 0.000000 0.000000 0.000000 0.123381 0.719317 1.142753 0.182871 0.140210 0.255511 0.261507 1.176129 -0.284947 0.000000 0.000000 0.000000 
-3247.802246 966.337524 1127.197998 -2.709087 -2.683297 -0.660394 -0.799643 -0.635279 0.847648 -0.718147 0.085769 -0.344090 -0.747012 -0.033410 0.072930 0.690172 -6.002522 -1.101339 0.000000 0.000000 0.000000 -1.119926 4.270982 0.025075 -0.427837 3.690321 -2.519338 2.517057 -19.512585 9.227640 0.000000 0.000000 0.000000 0.186473 2.156276 -1.174218 1.230870 2.405971 -0.730896 0.016290 -5.388155 2.052102 0.000000 0.000000 0.000000 1.272959 0.185620 -0.456084 1.217284 1.223392 -0.178711 1.133436 1.005079 0.564536 0.000000 0.000000 0.000000 0.082996 0.653239 1.122259 0.148185 0.277952 0.237866 0.212454 0.954813 -0.231217 0.000000 0.000000 0.000000 
-3244.105469 967.191467 1127.178955 -2.534442 -2.524834 -0.674008 -0.831737 -0.351000 0.981980 -0.742317 0.031564 -0.399856 -0.775471 -0.001965 0.107583 0.699886 -6.181019 -1.146350 0.000000 0.000000 0.000000 -0.947195 5.518108 -0.994908 -0.615674 5.100988 -2.706133 3.200465 -26.582882 11.804280 0.000000 0.000000 0.000000 0.322881 2.941789 -1.212631 1.635708 3.302100 -0.394083 -0.480584 -8.895916 0.677451 0.000000 0.000000 0.000000 1.257990 0.290480 -0.549522 1.189035 1.164970 -0.131216 1.115298 0.836600 0.550572 0.000000 0.000000 0.000000 0.047361 0.611358 1.071251 0.111472 0.417622 0.261460 0.164182 0.702618 -0.166296 0.000000 0.000000 0.000000 
-3240.148438 968.271301 1127.244995 -2.326683 -2.383055 -0.695014 -0.904410 -0.022038 1.175588 -0.803294 -0.037869 -0.475302 -0.842242 0.035513 0.148672 0.716797 -6.305538 -1.224451 0.000000 0.000000 0.000000 -0.862239 6.930011 -1.999420 -0.841955 6.565672 -3.183314 3.803048 -34.683082 14.680719 0.000000 0.000000 0.000000 0.480313 3.888679 -1.429034 2.158470 4.471388 0.348611 -1.131341 -13.370097 -1.343199 0.000000 0.000000 0.000000 1.234313 0.436381 -0.644502 1.154962 1.100801 -0.101443 1.089500 0.668004 0.532989 0.000000 0.000000 0.000000 0.010365 0.588957 0.998988 0.069295 0.580224 0.312547 0.111207 0.412323 -0.090326 0.000000 0.000000 0.000000 
-3235.427979 969.354980 1127.350952 -2.170982 -2.140504 -0.705029 -0.936501 0.324349 1.332921 -0.828001 -0.113081 -0.524438 -0.870407 0.084963 0.179198 0.722310 -6.503590 -1.284303 0.000000 0.000000 0.000000 -0.922857 8.460523 -3.262127 -1.111456 8.103672 -3.538390 4.190293 -43.407132 17.445169 0.000000 0.000000 0.000000 0.691150 5.075365 -1.437375 2.802879 5.799604 0.885401 -1.779399 -18.787543 -3.211359 0.000000 0.000000 0.000000 1.233827 0.520308 -0.745859 1.144362 1.015345 -0.089406 1.083674 0.489499 0.524438 0.000000 0.000000 0.000000 -0.012359 0.517922 0.920371 0.042840 0.713119 0.346542 0.072833 0.140741 -0.013810 0.000000 0.000000 0.000000 
-3229.631592 970.278381 1127.467041 -2.130857 -1.717210 -0.685049 -0.869248 0.691137 1.377446 -0.764525 -0.192323 -0.513061 -0.805370 0.145147 0.187786 0.696127 -6.858208 -1.280816 0.000000 0.000000 0.000000 -1.184669 10.238863 -5.048262 -1.379448 9.837119 -3.522164 4.330080 -52.920105 19.978726 0.000000 0.000000 0.000000 0.993638 6.643447 -1.079817 3.527197 7.305472 1.003743 -2.413279 -25.484799 -4.553203 0.000000 0.000000 0.000000 1.283933 0.477459 -0.860844 1.183842 0.885732 -0.103721 1.121687 0.293677 0.535882 0.000000 0.000000 0.000000 -0.010841 0.352421 0.837741 0.045179 0.778649 0.332710 0.060653 -0.078622 0.057167 0.000000 0.000000 0.000000 
-3222.952393 971.125244 1127.610962 -2.172509 -1.158926 -0.641873 -0.732282 1.090545 1.342273 -0.640147 -0.279240 -0.456732 -0.675816 0.208018 0.171882 0.635662 -7.315603 -1.214035 0.000000 0.000000 0.000000 -1.754202 12.364209 -7.082599 -1.584260 11.642320 -3.507554 4.240400 -63.362372 22.358393 0.000000 0.000000 0.000000 1.413053 8.550829 -0.764821 4.203840 9.015630 1.278133 -3.094781 -33.379415 -5.641357 0.000000 0.000000 0.000000 1.371677 0.348767 -0.989642 1.261313 0.716195 -0.144595 1.191908 0.090379 0.562171 0.000000 0.000000 0.000000 0.008797 0.119267 0.743723 0.067828 0.796378 0.288396 0.067273 -0.262120 0.124739 0.000000 0.000000 0.000000 
-3215.286133 971.970520 1127.779053 -2.264876 -0.480930 -0.608651 -0.559247 1.457079 1.276822 -0.482569 -0.353208 -0.388319 -0.513573 0.269138 0.150781 0.560963 -7.896114 -1.115110 0.000000 0.000000 0.000000 -2.616665 14.471983 -8.989504 -1.769140 13.107336 -3.606108 4.012049 -73.373623 24.070597 0.000000 0.000000 0.000000 1.912664 10.630499 -0.480938 4.618246 10.632611 1.477266 -3.697874 -41.233512 -6.107864 0.000000 0.000000 0.000000 1.471036 0.121093 -1.119225 1.346253 0.566249 -0.173070 1.270735 -0.099653 0.592884 0.000000 0.000000 0.000000 0.047060 -0.170736 0.669385 0.113471 0.773631 0.218383 0.097588 -0.373483 0.178589 0.000000 0.000000 0.000000 
-3206.341309 972.934570 1127.905029 -2.424804 0.326334 -0.614416 -0.376283 1.692940 1.236916 -0.309664 -0.370571 -0.348819 -0.342022 0.290322 0.156659 0.485834 -8.648522 -0.998360 0.000000 0.000000 0.000000 -3.601910 16.343805 -10.858321 -2.059627 14.161688 -3.614145 3.813057 -82.361192 24.784596 0.000000 0.000000 0.000000 2.493258 12.953287 -0.050266 4.672726 12.058282 1.118335 -4.175612 -48.434854 -5.658640 0.000000 0.000000 0.000000 1.568849 -0.223603 -1.244363 1.421055 0.464777 -0.153023 1.346138 -0.269323 0.622552 0.000000 0.000000 0.000000 0.118193 -0.497217 0.638796 0.197433 0.681457 0.120263 0.168010 -0.382105 0.216005 0.000000 0.000000 0.000000 
-3196.161377 973.996155 1127.991943 -2.665431 1.267326 -0.650598 -0.168139 1.824361 1.201469 -0.107970 -0.337606 -0.333841 -0.146985 0.264215 0.188394 0.399490 -9.559536 -0.828751 0.000000 0.000000 0.000000 -4.748499 18.138924 -12.858117 -2.581358 14.974994 -3.570901 -176.256677 -89.128761 -155.274129 0.000000 0.000000 0.000000 3.197183 15.648018 0.398045 4.387173 13.379346 0.436228 -4.608588 -55.466269 -4.428393 0.000000 0.000000 0.000000 1.674951 -0.680233 -1.371082 1.497309 0.388861 -0.097400 1.427008 -0.414002 0.655428 0.000000 0.000000 0.000000 0.222005 -0.862590 0.638392 0.318454 0.514935 -0.005360 0.277358 -0.289592 0.236951 0.000000 0.000000 0.000000 
-3185.703613 974.791138 1128.317017 -2.821889 2.258249 -0.681487 0.089658 2.105758 1.040800 0.127546 -0.367057 -0.276851 0.086084 0.312458 0.196287 0.313130 -10.477892 -0.612346 0.000000 0.000000 0.000000 -6.109789 19.487974 -14.401501 -3.373247 15.388052 -3.768863 -176.177598 -82.102830 -155.528063 0.000000 0.000000 0.000000 3.758074 18.235005 0.744999 3.974087 14.298817 0.002367 -5.015209 -62.221279 -2.840735 0.000000 0.000000 0.000000 1.772157 -1.206568 -1.482611 1.566315 0.375099 -0.053877 1.499251 -0.484970 0.686498 0.000000 0.000000 0.000000 0.297136 -1.326797 0.653309 0.418037 0.418672 -0.140001 0.369376 -0.100612 0.215558 0.000000 0.000000 0.000000 
-3175.758545 974.950195 1129.125977 -2.780549 3.266425 -0.673867 0.445418 2.849271 0.573225 0.417634 -0.574637 -0.093052 0.385626 0.543173 0.117223 0.227966 -11.378515 -0.339318 0.000000 0.000000 0.000000 -7.599547 19.856626 -15.061194 -4.246096 15.395708 -4.247233 -176.086969 -77.164017 -155.508326 0.000000 0.000000 0.000000 3.928999 20.431508 1.242654 3.664343 14.525110 -0.235038 -5.431853 -68.718094 -1.021784 0.000000 0.000000 0.000000 1.851149 -1.800862 -1.559036 1.626589 0.433871 -0.061817 1.556140 -0.442415 0.713978 0.000000 0.000000 0.000000 0.304415 -1.976065 0.676499 0.460611 0.506840 -0.269526 0.410504 0.195344 0.131757 0.000000 0.000000 0.000000 
-3165.962402 974.607117 1130.312988 -2.603228 4.314823 -0.633070 0.881110 3.991969 -0.144794 0.752317 -0.886835 0.189510 0.738161 0.826815 -0.032212 0.140938 -12.279017 0.006160 0.000000 0.000000 0.000000 -9.097536 19.271617 -15.193071 -4.930626 15.347146 -4.680574 -176.063916 -73.770052 -155.413435 0.000000 0.000000 0.000000 3.886741 22.489758 2.057947 3.477415 14.139927 -0.594443 -5.941526 -75.072743 1.105717 0.000000 0.000000 0.000000 1.918596 -2.466365 -1.612156 1.682181 0.546122 -0.102541 1.603647 -0.303051 0.740096 0.000000 0.000000 0.000000 0.267153 -2.775756 0.708784 0.467643 0.719768 -0.400144 0.421910 0.607183 -0.007242 0.000000 0.000000 0.000000 
-3155.612061 974.363037 1131.612061 -2.294312 5.280042 -0.574316 1.217085 4.941621 -0.597588 1.020873 -1.079734 0.361079 1.018703 0.937855 -0.119612 0.097543 -12.875898 0.281129 0.000000 0.000000 0.000000 -10.532884 18.684171 -15.318240 -5.128036 15.655044 -4.690363 -175.903338 -71.579030 -155.522154 0.000000 0.000000 0.000000 3.873577 24.195710 2.591309 3.660723 13.540339 -0.224094 -6.448843 -81.012272 2.688622 0.000000 0.000000 0.000000 1.962745 -3.056564 -1.679680 1.712201 0.775687 -0.139660 1.629521 -0.131506 0.756913 0.000000 0.000000 0.000000 0.175933 -3.494788 0.747745 0.421758 0.979477 -0.540259 0.383007 1.051431 -0.182175 0.000000 0.000000 0.000000 
